# xmcd
#
# Track frame offsets:
#	150
#	15857
#	32152
#	44918
#	60274
#	76564
#	91955
#	111187
#	130326
#	148713
#	164420
#	180715
#	193481
#	208837
#	225127
#	240518
#	259750
#	278889
#
# Disc length: 3963 seconds
#
# Revision: 2
# Processed by: cddbd v1.5.2PL0 Copyright (c) Steve Scherf et al.
# Submitted via: audiograbber 1.83.01
#
DISCID=f30f7912
DTITLE=Various Artist - Pop Hits Monthly - September 2005 PHC0509
DYEAR=2005
DGENRE=Karaoke
TTITLE0=Jessica Andrews - Summer Girl
TTITLE1=Jo Dee Messina - Delicious Surprise
TTITLE2=Matt Jenkins - King Of The Castle
TTITLE3=Brooks and Dunn - Play Something Country
TTITLE4=Tim McGraw - Do You Want Fries With That
TTITLE5=Lonestar - You're Like Coming Home
TTITLE6=Gary Allan - The Best I Ever Had
TTITLE7=Little Big Town - Boondocks
TTITLE8=Trace Adkins - Arlington
TTITLE9=Jessica Andrews - Vocal - Summer Girl
TTITLE10=Jo Dee Messina - Vocal - Delicious Surprise
TTITLE11=Matt Jenkins - Vocal - Delicious Surprise
TTITLE12=Brooks and Dunn - Vocal - Play Something Country
TTITLE13=Tim McGraw - Vocal - Do You Want Fries With That
TTITLE14=Lonestar - Vocal - You're Like Coming Home
TTITLE15=Gary Allan - Vocal - The Best I Ever Had
TTITLE16=Little Big Town - Vocal - Boondocks
TTITLE17=Trace Adkins - Vocal - Arlington
EXTD=
EXTT0=
EXTT1=
EXTT2=
EXTT3=
EXTT4=
EXTT5=
EXTT6=
EXTT7=
EXTT8=
EXTT9=
EXTT10=
EXTT11=
EXTT12=
EXTT13=
EXTT14=
EXTT15=
EXTT16=
EXTT17=
PLAYORDER=
